<svg xmlns="http://www.w3.org/2000/svg" width="36" height="36" viewBox="0 0 36 36" fill="none">
    <path d="M18.0001 0.923813C8.34012 0.923813 0.500122 8.76381 0.500122 18.4238C0.500122 28.0838 8.34012 35.9238 18.0001 35.9238C27.6601 35.9238 35.5001 28.0838 35.5001 18.4238C35.5001 8.76381 27.6601 0.923813 18.0001 0.923813ZM13.2576 25.9313L6.97512 19.6488C6.29262 18.9663 6.29262 17.8638 6.97512 17.1813C7.65762 16.4988 8.76012 16.4988 9.44262 17.1813L14.5001 22.2213L26.5401 10.1813C27.2226 9.49881 28.3251 9.49881 29.0076 10.1813C29.6901 10.8638 29.6901 11.9663 29.0076 12.6488L15.7251 25.9313C15.0601 26.6138 13.9401 26.6138 13.2576 25.9313Z" fill="#219653"/>
</svg>